Coordinates
version=1
nRows=37
nColumns=24
inDegrees=yes

Units are S.I. units (second, meters, Newtons, ...)
If the header above contains a line with 'inDegrees', this indicates whether rotational values are in degrees (yes) or radians (no).

endheader
time	pelvis_tilt	pelvis_list	pelvis_rotation	pelvis_tx	pelvis_ty	pelvis_tz	hip_flexion_r	hip_adduction_r	hip_rotation_r	knee_angle_r	ankle_angle_r	subtalar_angle_r	mtp_angle_r	hip_flexion_l	hip_adduction_l	hip_rotation_l	knee_angle_l	ankle_angle_l	subtalar_angle_l	mtp_angle_l	lumbar_extension	lumbar_bending	lumbar_rotation
3.300000	9.797815	1.554056	-180.944017	0.288806	0.581852	-1.218164	67.346193	-28.305587	-13.028984	-100.456294	38.581009	12.412702	0.000000	69.471090	-32.575337	-6.375829	-99.529679	38.643640	18.771887	0.000000	-10.733052	2.009121	1.817440
3.305000	9.787106	1.547367	-180.928375	0.288998	0.581723	-1.218208	67.368062	-28.315535	-13.019453	-100.480552	38.577543	12.409570	0.000000	69.495962	-32.570542	-6.369148	-99.536564	38.644290	18.776538	0.000000	-10.774583	2.002734	1.808773
3.310000	9.797720	1.527024	-180.902481	0.289124	0.581678	-1.218212	67.390509	-28.340240	-13.003627	-100.469818	38.561089	12.419021	0.000000	69.508577	-32.541412	-6.389625	-99.521590	38.636936	18.804881	0.000000	-10.770205	1.997729	1.771000
3.315000	9.793777	1.524321	-180.892554	0.289258	0.581573	-1.218224	67.411747	-28.350163	-12.997114	-100.485382	38.559385	12.416976	0.000000	69.529711	-32.542143	-6.387321	-99.535358	38.634232	18.806493	0.000000	-10.802353	1.984873	1.793838
3.320000	9.795398	1.508688	-180.905415	0.289387	0.581531	-1.218245	67.453438	-28.342594	-12.972043	-100.498616	38.557644	12.366891	0.000000	69.539543	-32.558733	-6.417632	-99.551087	38.596945	18.815268	0.000000	-10.818914	1.981049	1.795096
3.325000	9.789141	1.501327	-180.904903	0.289503	0.581506	-1.218268	67.475561	-28.349881	-12.968948	-100.518348	38.553886	12.356537	0.000000	69.548113	-32.564548	-6.423622	-99.556767	38.594330	18.812213	0.000000	-10.830896	1.995365	1.783125
3.330000	9.807858	1.467595	-180.889468	0.289686	0.581473	-1.218289	67.532805	-28.370894	-12.930168	-100.520396	38.536230	12.316252	0.000000	69.564484	-32.534035	-6.440922	-99.575266	38.545581	18.864749	0.000000	-10.828122	1.981842	1.729976
3.335000	9.799930	1.463095	-180.865577	0.289891	0.581365	-1.218387	67.547035	-28.380354	-12.929385	-100.537092	38.529855	12.314648	0.000000	69.595368	-32.537495	-6.452420	-99.544287	38.552198	18.864199	0.000000	-10.867089	1.961818	1.737774
3.340000	9.818104	1.429322	-180.834795	0.289995	0.581383	-1.218389	67.580338	-28.425057	-12.907254	-100.522856	38.496068	12.326628	0.000000	69.601905	-32.502456	-6.495533	-99.527077	38.508953	18.879003	0.000000	-10.851294	1.934101	1.718404
3.345000	9.816711	1.428630	-180.822701	0.290118	0.581326	-1.218399	67.595007	-28.432363	-12.906431	-100.530059	38.496243	12.330785	0.000000	69.623700	-32.506398	-6.495842	-99.527755	38.505145	18.877687	0.000000	-10.880482	1.911401	1.742723
3.350000	9.812646	1.424369	-180.830511	0.290206	0.581277	-1.218393	67.616964	-28.441135	-12.908421	-100.546448	38.496039	12.331006	0.000000	69.633418	-32.532471	-6.512973	-99.547487	38.488807	18.873153	0.000000	-10.889393	1.920846	1.744939
3.355000	9.806908	1.414568	-180.844086	0.290382	0.581211	-1.218454	67.651257	-28.433268	-12.894071	-100.570111	38.490853	12.322721	0.000000	69.644543	-32.562586	-6.538875	-99.563657	38.460829	18.874191	0.000000	-10.911396	1.938098	1.701047
3.360000	9.825261	1.389856	-180.841387	0.290552	0.581141	-1.218488	67.706275	-28.444981	-12.866082	-100.576448	38.460832	12.310134	0.000000	69.668003	-32.571755	-6.579488	-99.560141	38.435713	18.927990	0.000000	-10.906598	1.922775	1.695082
3.365000	9.825534	1.382541	-180.828808	0.290721	0.581116	-1.218596	67.715245	-28.445950	-12.866440	-100.569989	38.457169	12.312385	0.000000	69.677114	-32.573850	-6.574594	-99.563540	38.430725	18.939026	0.000000	-10.920623	1.911215	1.696116
3.370000	9.837826	1.369190	-180.798297	0.290852	0.581084	-1.218648	67.744215	-28.476518	-12.864941	-100.577408	38.435504	12.314715	0.000000	69.708537	-32.572849	-6.608890	-99.523499	38.414964	19.023725	0.000000	-10.918700	1.904420	1.642069
3.375000	9.842573	1.357713	-180.791317	0.290974	0.581075	-1.218670	67.773375	-28.494005	-12.862265	-100.585529	38.427306	12.320607	0.000000	69.715176	-32.567266	-6.607937	-99.545198	38.397274	19.085077	0.000000	-10.921702	1.894700	1.661885
3.380000	9.837316	1.357593	-180.792332	0.291045	0.581065	-1.218689	67.783646	-28.507725	-12.879407	-100.599590	38.429479	12.316809	0.000000	69.726438	-32.600122	-6.637597	-99.526701	38.399959	19.080869	0.000000	-10.929717	1.902040	1.657883
3.385000	9.833916	1.352829	-180.789858	0.291153	0.581048	-1.218733	67.792231	-28.518749	-12.887795	-100.602696	38.428737	12.315116	0.000000	69.731572	-32.623766	-6.655420	-99.548833	38.400912	19.092057	0.000000	-10.939513	1.904866	1.656737
3.390000	9.823571	1.323153	-180.782592	0.291269	0.581046	-1.218829	67.799271	-28.538074	-12.866347	-100.598478	38.437966	12.334506	0.000000	69.709614	-32.639777	-6.707613	-99.538145	38.361543	19.201459	0.000000	-10.958225	1.873445	1.652651
3.395000	9.839728	1.301384	-180.772807	0.291343	0.581084	-1.218885	67.818630	-28.566071	-12.872720	-100.587157	38.430247	12.345956	0.000000	69.709782	-32.643020	-6.753721	-99.517492	38.378881	19.249867	0.000000	-10.933672	1.852473	1.679639
3.400000	9.844775	1.291088	-180.781308	0.291448	0.581091	-1.218922	67.849810	-28.567126	-12.863759	-100.591771	38.389397	12.358339	0.000000	69.718482	-32.666737	-6.782321	-99.513128	38.360430	19.290391	0.000000	-10.939762	1.842053	1.716964
3.405000	9.835187	1.281616	-180.789550	0.291598	0.581060	-1.218995	67.875838	-28.562667	-12.852191	-100.613395	38.397577	12.350867	0.000000	69.719956	-32.684929	-6.787224	-99.518212	38.319750	19.305818	0.000000	-10.963212	1.858730	1.656723
3.410000	9.827415	1.271720	-180.790588	0.291681	0.581083	-1.219047	67.882488	-28.577039	-12.859028	-100.620254	38.397707	12.348114	0.000000	69.731277	-32.710258	-6.804400	-99.525617	38.316844	19.310775	0.000000	-10.973679	1.859409	1.654844
3.415000	9.829660	1.265423	-180.786229	0.291813	0.581093	-1.219162	67.889994	-28.573852	-12.864904	-100.608645	38.391036	12.351036	0.000000	69.730115	-32.724494	-6.826353	-99.500274	38.309565	19.323380	0.000000	-10.979191	1.855573	1.653304
3.420000	9.825826	1.228101	-180.765742	0.291928	0.581065	-1.219267	67.907587	-28.600892	-12.837172	-100.607973	38.371241	12.362467	0.000000	69.714231	-32.719169	-6.878802	-99.481616	38.258594	19.408712	0.000000	-10.987091	1.819036	1.610989
3.425000	9.831037	1.211546	-180.757338	0.291966	0.581072	-1.219318	67.913965	-28.615079	-12.830250	-100.600265	38.380387	12.382169	0.000000	69.705615	-32.720046	-6.910721	-99.469675	38.282621	19.444039	0.000000	-10.979508	1.784494	1.681263
3.430000	9.827448	1.208139	-180.756569	0.292055	0.581091	-1.219363	67.923845	-28.616967	-12.835115	-100.605399	38.380195	12.383840	0.000000	69.705393	-32.729398	-6.920829	-99.460109	38.281808	19.445101	0.000000	-10.985995	1.795261	1.678701
3.435000	9.815051	1.188602	-180.776685	0.292104	0.581108	-1.219373	67.945762	-28.617292	-12.811998	-100.619372	38.368353	12.380942	0.000000	69.682224	-32.749064	-6.941198	-99.503487	38.243429	19.493336	0.000000	-10.997899	1.794445	1.697126
3.440000	9.810033	1.183553	-180.773109	0.292178	0.581114	-1.219435	67.948713	-28.622973	-12.818829	-100.627898	38.370447	12.378818	0.000000	69.685708	-32.758467	-6.957471	-99.469971	38.245657	19.488581	0.000000	-11.001945	1.800434	1.699504
3.445000	9.799899	1.142725	-180.762147	0.292289	0.581109	-1.219520	67.965908	-28.649819	-12.791662	-100.629325	38.355854	12.365023	0.000000	69.654974	-32.734398	-6.983649	-99.478861	38.201680	19.540498	0.000000	-11.012936	1.761623	1.694241
3.450000	9.783329	1.129359	-180.764095	0.292413	0.581035	-1.219665	67.971332	-28.639647	-12.772524	-100.640311	38.364795	12.371356	0.000000	69.649938	-32.754352	-7.013254	-99.454202	38.221767	19.530751	0.000000	-11.028006	1.779941	1.619090
3.455000	9.777982	1.117485	-180.750629	0.292416	0.581065	-1.219705	67.965624	-28.664309	-12.785814	-100.642732	38.359923	12.375556	0.000000	69.635186	-32.742323	-7.022506	-99.439368	38.217291	19.532047	0.000000	-11.023632	1.758653	1.656008
3.460000	9.770654	1.112671	-180.749439	0.292469	0.581064	-1.219753	67.972008	-28.665040	-12.781889	-100.651637	38.363089	12.375594	0.000000	69.632589	-32.743887	-7.025824	-99.443461	38.214339	19.530146	0.000000	-11.027784	1.765126	1.660183
3.465000	9.729622	1.080327	-180.751269	0.292546	0.581052	-1.219848	67.968926	-28.673322	-12.747731	-100.677679	38.393795	12.356655	0.000000	69.584051	-32.742053	-7.059230	-99.448132	38.179260	19.500273	0.000000	-11.064468	1.761745	1.613052
3.470000	9.723425	1.073713	-180.747968	0.292616	0.581046	-1.219941	67.970655	-28.673774	-12.746794	-100.677669	38.393418	12.357186	0.000000	69.584464	-32.744576	-7.058689	-99.441240	38.179444	19.500385	0.000000	-11.061537	1.764783	1.612680
3.475000	9.719528	1.040220	-180.732451	0.292709	0.581042	-1.220017	67.984161	-28.699191	-12.727229	-100.675610	38.359774	12.383104	0.000000	69.567112	-32.719552	-7.085779	-99.419734	38.176138	19.560996	0.000000	-11.059100	1.735098	1.618465
3.480000	9.722960	1.035134	-180.726259	0.292720	0.581090	-1.220115	67.976879	-28.695014	-12.730991	-100.664123	38.363947	12.384254	0.000000	69.560360	-32.720960	-7.094930	-99.386851	38.173536	19.563873	0.000000	-11.039204	1.730363	1.621171
